# xmcd
#
# Track frame offsets:
#	150
#	10589
#	18918
#	33147
#	49072
#	58081
#	72203
#	87180
#	101981
#	115519
#	122085
#	136868
#	150946
#	163683
#	173180
#	192556
#	205858
#	229781
#	243766
#	256985
#
# Disc length: 3597 seconds
#
# Revision: 1
# Processed by: cddbd v1.5.2PL0 Copyright (c) Steve Scherf et al.
# Submitted via: audiograbber 1.83.01
#
DISCID=fb0e0b14
DTITLE=Welcome to Dixieland  -  Cornet Chop Suey Disc 4
DYEAR=1900
DGENRE=Jazz
TTITLE0=Chris Barber's Jazzband - Tuxedo Rag
TTITLE1=Mick Mulligan's Jazzband - Muskrat Ramble 
TTITLE2=Papa Bue's Viking Jazzband - O Sole Mio
TTITLE3=Ken Colyer's Jazzmen - Cataract Rag
TTITLE4=Chris Barber's Jazzband - Going To Town
TTITLE5=Ian Menzies and His Clyde Valley Stompers - Mack The Knife
TTITLE6=Mister Acker Bilk's Paramount Jazzband - King Joe
TTITLE7=Alex Welch and His Band - Cornet Chop Suey
TTITLE8=Hunmphrey Littleton - Kater Street Rag
TTITLE9=Chris Barber's Jazzband - Oh, Didn't He Ramble
TTITLE10=Cy Laurie Jazz Band - Forty And Tight
TTITLE11=Ken Colyer's Jazzmen - Stockyard Strut
TTITLE12=Freddie Randall Jazzband - Since My Best Girl Turned Me Down
TTITLE13=Papa Bue's Viking Jazzband - Dark Eyes
TTITLE14=Chris Barber's Jazzband - The World Is Waiting For The Sunrise
TTITLE15=Mister Acker Bilk's Paramount Jazzband - East Coast Trot
TTITLE16=Terry Lightfoot's Jazzmen - Panama
TTITLE17=Ken Colyer's Jazzmen - Salutation Stomp
TTITLE18=Humphrey Littleton - Cake Walkin' Babies
TTITLE19=Chris Barber's Jazzband - St. Phillips Street Breakdown
EXTD=
EXTT0=
EXTT1=
EXTT2=
EXTT3=
EXTT4=
EXTT5=
EXTT6=
EXTT7=
EXTT8=
EXTT9=
EXTT10=
EXTT11=
EXTT12=
EXTT13=
EXTT14=
EXTT15=
EXTT16=
EXTT17=
EXTT18=
EXTT19=
PLAYORDER=
